<mxfile host="app.diagrams.net" modified="2022-09-09T11:43:36.891Z" agent="5.0 (Macintosh; Intel Mac OS X 10_15_7) AppleWebKit/537.36 (KHTML, like Gecko) Chrome/103.0.0.0 Safari/537.36" etag="ow4belY777n3i1jvDSnB" version="20.2.4" type="github">
  <diagram id="zC-SaXTr_2-HBtyZ_m58" name="第 1 页">
    <mxGraphModel dx="1770" dy="447" grid="1" gridSize="10" guides="1" tooltips="1" connect="1" arrows="1" fold="1" page="1" pageScale="1" pageWidth="827" pageHeight="1169" math="0" shadow="0">
      <root>
        <mxCell id="0" />
        <mxCell id="1" parent="0" />
        <mxCell id="IlKKcgGs-gU_iAphdW2g-13" style="edgeStyle=orthogonalEdgeStyle;rounded=0;orthogonalLoop=1;jettySize=auto;html=1;" parent="1" source="IlKKcgGs-gU_iAphdW2g-1" target="IlKKcgGs-gU_iAphdW2g-11" edge="1">
          <mxGeometry relative="1" as="geometry" />
        </mxCell>
        <mxCell id="IlKKcgGs-gU_iAphdW2g-1" value="ConsumerCoordinator" style="rounded=0;whiteSpace=wrap;html=1;" parent="1" vertex="1">
          <mxGeometry x="140" y="190" width="140" height="60" as="geometry" />
        </mxCell>
        <mxCell id="IlKKcgGs-gU_iAphdW2g-11" value="" style="rounded=0;whiteSpace=wrap;html=1;" parent="1" vertex="1">
          <mxGeometry x="30" y="335" width="760" height="415" as="geometry" />
        </mxCell>
        <mxCell id="IlKKcgGs-gU_iAphdW2g-16" value="" style="edgeStyle=orthogonalEdgeStyle;rounded=0;orthogonalLoop=1;jettySize=auto;html=1;" parent="1" source="IlKKcgGs-gU_iAphdW2g-2" target="IlKKcgGs-gU_iAphdW2g-15" edge="1">
          <mxGeometry relative="1" as="geometry" />
        </mxCell>
        <mxCell id="IlKKcgGs-gU_iAphdW2g-17" style="edgeStyle=orthogonalEdgeStyle;rounded=0;orthogonalLoop=1;jettySize=auto;html=1;entryX=0;entryY=0.5;entryDx=0;entryDy=0;" parent="1" source="IlKKcgGs-gU_iAphdW2g-2" target="IlKKcgGs-gU_iAphdW2g-9" edge="1">
          <mxGeometry relative="1" as="geometry" />
        </mxCell>
        <mxCell id="IlKKcgGs-gU_iAphdW2g-20" style="edgeStyle=orthogonalEdgeStyle;rounded=0;orthogonalLoop=1;jettySize=auto;html=1;entryX=0;entryY=0.5;entryDx=0;entryDy=0;" parent="1" source="IlKKcgGs-gU_iAphdW2g-2" target="IlKKcgGs-gU_iAphdW2g-7" edge="1">
          <mxGeometry relative="1" as="geometry">
            <Array as="points">
              <mxPoint x="200" y="650" />
            </Array>
          </mxGeometry>
        </mxCell>
        <mxCell id="IlKKcgGs-gU_iAphdW2g-2" value="ConsumerNetworkClient" style="whiteSpace=wrap;html=1;rounded=0;" parent="1" vertex="1">
          <mxGeometry x="180" y="360" width="160" height="60" as="geometry" />
        </mxCell>
        <mxCell id="IlKKcgGs-gU_iAphdW2g-14" style="edgeStyle=orthogonalEdgeStyle;rounded=0;orthogonalLoop=1;jettySize=auto;html=1;entryX=0.5;entryY=0;entryDx=0;entryDy=0;" parent="1" source="IlKKcgGs-gU_iAphdW2g-4" target="IlKKcgGs-gU_iAphdW2g-11" edge="1">
          <mxGeometry relative="1" as="geometry" />
        </mxCell>
        <mxCell id="IlKKcgGs-gU_iAphdW2g-4" value="Fetcher" style="rounded=0;whiteSpace=wrap;html=1;" parent="1" vertex="1">
          <mxGeometry x="600" y="190" width="140" height="60" as="geometry" />
        </mxCell>
        <mxCell id="IlKKcgGs-gU_iAphdW2g-7" value="" style="whiteSpace=wrap;html=1;rounded=0;" parent="1" vertex="1">
          <mxGeometry x="280" y="590" width="330" height="120" as="geometry" />
        </mxCell>
        <mxCell id="IlKKcgGs-gU_iAphdW2g-9" value="Metadata&lt;br&gt;关注的topic&lt;br&gt;topics" style="whiteSpace=wrap;html=1;rounded=0;" parent="1" vertex="1">
          <mxGeometry x="320" y="470" width="120" height="60" as="geometry" />
        </mxCell>
        <mxCell id="IlKKcgGs-gU_iAphdW2g-18" style="edgeStyle=orthogonalEdgeStyle;rounded=0;orthogonalLoop=1;jettySize=auto;html=1;entryX=1;entryY=0.5;entryDx=0;entryDy=0;" parent="1" source="IlKKcgGs-gU_iAphdW2g-15" target="IlKKcgGs-gU_iAphdW2g-9" edge="1">
          <mxGeometry relative="1" as="geometry" />
        </mxCell>
        <mxCell id="IlKKcgGs-gU_iAphdW2g-15" value="NetworkClient" style="whiteSpace=wrap;html=1;rounded=0;" parent="1" vertex="1">
          <mxGeometry x="440" y="360" width="120" height="60" as="geometry" />
        </mxCell>
        <mxCell id="IlKKcgGs-gU_iAphdW2g-19" value="监听到metadata订阅的topic分区有变化时，设置需要重新分配needsPartitionAssignment" style="text;html=1;strokeColor=none;fillColor=none;align=center;verticalAlign=middle;whiteSpace=wrap;rounded=0;" parent="1" vertex="1">
          <mxGeometry x="40" y="470" width="150" height="70" as="geometry" />
        </mxCell>
        <mxCell id="IlKKcgGs-gU_iAphdW2g-21" value="保存需要订阅的topic&lt;br&gt;subscription set" style="rounded=0;whiteSpace=wrap;html=1;" parent="1" vertex="1">
          <mxGeometry x="310" y="640" width="120" height="60" as="geometry" />
        </mxCell>
        <mxCell id="IlKKcgGs-gU_iAphdW2g-22" value="SubscriptionState" style="text;html=1;strokeColor=none;fillColor=none;align=center;verticalAlign=middle;whiteSpace=wrap;rounded=0;" parent="1" vertex="1">
          <mxGeometry x="360" y="550" width="140" height="30" as="geometry" />
        </mxCell>
        <mxCell id="IlKKcgGs-gU_iAphdW2g-24" style="edgeStyle=orthogonalEdgeStyle;rounded=0;orthogonalLoop=1;jettySize=auto;html=1;" parent="1" source="IlKKcgGs-gU_iAphdW2g-23" target="IlKKcgGs-gU_iAphdW2g-1" edge="1">
          <mxGeometry relative="1" as="geometry" />
        </mxCell>
        <mxCell id="IlKKcgGs-gU_iAphdW2g-25" style="edgeStyle=orthogonalEdgeStyle;rounded=0;orthogonalLoop=1;jettySize=auto;html=1;" parent="1" source="IlKKcgGs-gU_iAphdW2g-23" target="IlKKcgGs-gU_iAphdW2g-4" edge="1">
          <mxGeometry relative="1" as="geometry" />
        </mxCell>
        <mxCell id="IlKKcgGs-gU_iAphdW2g-23" value="KafkaConsumer&lt;br&gt;线程不安全" style="rounded=0;whiteSpace=wrap;html=1;" parent="1" vertex="1">
          <mxGeometry x="350" y="70" width="120" height="60" as="geometry" />
        </mxCell>
        <mxCell id="NtYE-VMm6slHbtxHCwFV-1" value="" style="rounded=0;whiteSpace=wrap;html=1;" vertex="1" parent="1">
          <mxGeometry x="-170" y="275" width="120" height="60" as="geometry" />
        </mxCell>
      </root>
    </mxGraphModel>
  </diagram>
</mxfile>
